# xmcd
#
# Track frame offsets: 
#        150
#        11220
#        23396
#        33546
#        46292
#        61412
#        74787
#        88358
#        99625
#        114026
#
# Disc length: 1723 seconds
#
# Revision: 0
# Processed by: cddbd v1.5.2PL0 Copyright (c) Steve Scherf et al.
# Submitted via: ExactAudioCopy v1.0b3
#
DISCID=8306b90a
DTITLE=Clydie King -  Direct Me
DYEAR=1971
DGENRE=Soul
TTITLE0=Direct Me 
TTITLE1=Ain't My Stuff Good Enough 
TTITLE2=First Time, Last Time
TTITLE3=Never Like This Before 
TTITLE4=I Can't Go On Without Love
TTITLE5='Bout Love
TTITLE6=Long Road Ahead 
TTITLE7=B Minor
TTITLE8=You Need Love Like I Do, Don't You
TTITLE9=The Long And Winding Road
EXTD=
EXTT0=
EXTT1=
EXTT2=
EXTT3=
EXTT4=
EXTT5=
EXTT6=
EXTT7=
EXTT8=
EXTT9=
PLAYORDER=
